<svg 
  xmlns="http://www.w3.org/2000/svg" 
  version="1.0" 
  width={width} 
  height={height} 
  viewBox="0 0 402.000000 224.000000" 
  preserveAspectRatio="xMidYMid meet" 
  className={className}
>
  <rect width="402" height="224" fill={backgroundColor} />
  <g 
    transform="translate(0.000000,224.000000) scale(0.100000,-0.100000)" 
    fill={fillColor} 
    stroke="none"
  >
    <path d="M2925 2052 c-39 -19 -115 -92 -115 -112 0 -6 -37 -28 -83 -49 -102 -47 -136 -86 -173 -197 l-26 -79 -54 -24 c-63 -27 -76 -45 -76 -108 0 -73 70 -153 167 -191 22 -9 181 -42 203 -42 1 0 2 -8 2 -19 0 -10 -22 -47 -50 -81 -27 -34 -50 -65 -50 -69 0 -4 7 -17 16 -29 14 -21 14 -22 -6 -22 -94 0 -201 -73 -246 -168 -24 -48 -28 -70 -28 -142 0 -75 4 -92 31 -145 57 -110 123 -149 253 -149 74 0 91 3 137 28 56 31 103 90 106 134 2 27 1 27 -67 30 -64 3 -71 1 -90 -22 -30 -36 -95 -49 -138 -27 -36 18 -64 54 -74 93 l-6 28 197 0 198 0 -6 74 c-8 107 -49 185 -120 226 -38 22 -46 30 -30 30 12 0 38 14 56 30 19 17 39 30 43 30 5 0 20 9 34 20 32 25 38 25 42 -2 4 -31 71 -66 140 -74 50 -6 55 -5 61 15 3 13 13 21 26 21 12 0 37 6 55 14 38 16 62 69 52 112 -5 20 -1 32 20 51 25 23 31 24 59 14 46 -16 80 -14 153 11 54 18 69 20 96 10 51 -19 64 -15 86 27 36 72 125 108 150 61 16 -30 40 -25 40 8 0 41 -38 133 -68 165 -29 31 -77 47 -141 47 -43 0 -47 -2 -155 -115 -103 -107 -114 -115 -148 -115 -40 0 -39 -1 -52 75 -4 26 3 37 55 85 32 30 61 67 64 81 6 22 1 27 -32 41 -21 9 -54 20 -73 26 l-35 9 61 59 c75 72 88 94 70 119 -9 13 -30 19 -72 22 -88 6 -87 5 -64 63 28 71 26 98 -7 111 -44 17 -97 1 -190 -57 -47 -30 -92 -53 -99 -50 -8 3 -14 28 -16 68 -3 73 -16 81 -83 50z m136 -168 c129 -39 213 -101 223 -167 8 -54 30 -329 29 -380 0 -67 -23 -90 -80 -81 -52 8 -55 -3 -8 -33 19 -13 37 -34 41 -47 10 -42 -10 -62 -80 -80 -60 -15 -118 -21 -88 -9 22 9 13 33 -13 33 -30 0 -43 24 -25 45 10 12 10 15 -2 15 -8 0 -19 -5 -25 -11 -19 -19 -116 -51 -150 -50 -23 1 -33 -4 -33 -14 0 -9 -7 -18 -15 -21 -8 -4 -15 -12 -15 -19 0 -20 -21 -30 -30 -14 -5 7 -6 26 -3 41 3 16 1 28 -5 28 -13 0 -38 -24 -45 -42 -2 -7 -8 -10 -12 -6 -8 7 38 83 57 94 5 4 20 -4 32 -15 17 -16 30 -20 50 -15 34 8 33 22 -1 35 -32 12 -43 26 -43 55 0 20 7 22 74 29 77 7 136 33 136 60 0 19 0 19 -52 -2 -34 -14 -72 -18 -183 -18 -130 0 -145 2 -205 28 -79 33 -135 84 -151 138 -11 35 -10 43 8 67 12 16 38 33 66 41 42 13 47 18 53 50 16 87 86 196 148 228 99 52 244 67 347 37z m-320 -1000 c25 -12 59 -64 59 -89 0 -3 -54 -5 -120 -5 -66 0 -120 3 -120 8 0 21 42 70 71 85 43 21 72 21 110 1z" />
    <path d="M2953 1730 c-42 -25 -53 -48 -53 -112 0 -47 4 -58 30 -83 24 -23 40 -29 69 -29 52 2 78 18 102 66 36 70 13 134 -58 164 -42 18 -52 18 -90 -6z" />
    <path d="M2647 1730 c-24 -15 -47 -63 -47 -99 0 -105 95 -161 154 -90 35 42 37 125 4 164 -26 29 -83 42 -111 25z" />
    <path d="M1045 1215 c-45 -44 -29 -128 28 -143 47 -13 84 -4 107 26 48 60 8 142 -70 142 -30 0 -47 -6 -65 -25z" />
    <path d="M190 1223 c0 -4 30 -89 66 -188 36 -99 97 -267 135 -374 38 -106 74 -202 80 -212 9 -18 20 -19 111 -17 l102 3 23 60 c29 74 127 342 164 450 15 44 42 116 59 160 53 134 56 125 -42 125 l-85 0 -41 -117 c-22 -65 -71 -209 -108 -320 -37 -112 -70 -203 -73 -203 -4 0 -53 143 -111 318 l-105 317 -87 3 c-49 1 -88 -1 -88 -5z" />
    <path d="M1964 1001 c-103 -47 -155 -130 -162 -256 -5 -94 6 -143 47 -207 57 -89 168 -131 291 -110 81 15 141 57 174 123 14 29 23 56 20 60 -3 5 -37 9 -75 9 -64 0 -73 -3 -99 -29 -68 -67 -182 -31 -197 63 l-6 36 195 0 196 0 -5 63 c-7 90 -19 131 -56 178 -49 65 -103 89 -201 89 -57 0 -93 -6 -122 -19z m192 -135 c19 -19 34 -43 34 -55 0 -20 -5 -21 -115 -21 -91 0 -115 3 -115 14 0 22 36 62 72 79 52 26 86 21 124 -17z" />
    <path d="M1030 720 l0 -291 78 3 77 3 3 288 2 287 -80 0 -80 0 0 -290z" />
    <path d="M1272 948 l3 -63 128 4 c91 2 127 0 127 -8 0 -6 -26 -44 -57 -85 -32 -40 -69 -88 -83 -106 -14 -19 -45 -58 -69 -87 -39 -50 -43 -59 -44 -111 l0 -57 239 0 239 0 3 63 3 62 -130 0 c-71 0 -132 4 -135 9 -4 5 -3 11 2 13 4 1 46 52 92 113 168 218 160 204 160 262 l0 53 -240 0 -241 0 3 -62z" />
    <path d="M3020 720 l0 -290 75 0 75 0 0 290 0 290 -75 0 -75 0 0 -290z" />
  </g>
</svg>